<svg width="185" height="60" viewBox="0 0 185 60" fill="none" xmlns="http://www.w3.org/2000/svg">
<path fill-rule="evenodd" clip-rule="evenodd" d="M116.517 13.5235C116.514 13.0437 116.605 12.5676 116.788 12.1236C116.97 11.6794 117.24 11.2761 117.581 10.9372C117.921 10.5982 118.326 10.3305 118.772 10.1495C119.218 9.96855 119.695 9.8781 120.177 9.88335H122.752V4.5273C122.671 3.96465 122.713 3.39135 122.873 2.8461C123.034 2.301 123.311 1.7967 123.685 1.3674C124.057 0.938104 124.519 0.594004 125.037 0.358054C125.556 0.122104 126.119 0 126.688 0C127.258 0 127.821 0.122104 128.34 0.358054C128.858 0.594004 129.32 0.938104 129.692 1.3674C130.066 1.7967 130.342 2.301 130.504 2.8461C130.664 3.39135 130.706 3.96465 130.625 4.5273V9.88335H138.997C139.479 9.8781 139.956 9.96855 140.402 10.1495C140.847 10.3305 141.253 10.5982 141.593 10.9372C141.934 11.2761 142.204 11.6794 142.386 12.1236C142.569 12.5676 142.66 13.0437 142.657 13.5235C142.651 14.4891 142.264 15.4135 141.578 16.0954C140.894 16.7772 139.965 17.1612 138.997 17.1639H130.625V30.0583C130.625 36.347 134.135 39.5606 138.997 39.5606C139.976 39.5606 140.915 39.9483 141.607 40.6385C142.298 41.3286 142.687 42.2646 142.687 43.2405C142.687 44.2166 142.298 45.1526 141.607 45.8426C140.915 46.5327 139.976 46.9205 138.997 46.9205C129.761 46.9205 122.752 40.4236 122.752 30.0583V17.1639H120.177C119.209 17.1612 118.28 16.7772 117.596 16.0954C116.91 15.4135 116.523 14.4891 116.517 13.5235ZM35.5176 28.0134C35.5476 24.4095 36.5965 20.8876 38.5443 17.8579C40.4921 14.8282 43.2577 12.4152 46.5215 10.8995C49.7837 9.38385 53.4092 8.8278 56.9746 9.29625C60.54 9.76455 63.8999 11.2381 66.6639 13.5454C67.0901 13.9164 67.4368 14.3712 67.6814 14.882C67.926 15.3926 68.064 15.9481 68.085 16.5142C68.091 17.5807 67.6798 18.6072 66.9401 19.3742L55.9992 32.427C55.6811 32.8403 55.2699 33.1722 54.8002 33.3959C54.329 33.6194 53.8129 33.7283 53.2921 33.7136C52.8135 33.7394 52.3318 33.666 51.8816 33.4978C51.4314 33.3298 51.0202 33.0707 50.6736 32.7366C50.327 32.4024 50.0538 32.0004 49.8678 31.5556C49.6832 31.1109 49.5917 30.6327 49.5992 30.1509C49.5767 29.7213 49.6397 29.2914 49.7853 28.8868C49.9308 28.4821 50.1574 28.111 50.4485 27.7957L59.0589 17.682C57.6499 16.8161 56.0232 16.3698 54.3696 16.3954C48.2561 16.3954 43.4182 21.5314 43.4182 28.0134C43.4182 34.4953 48.1871 39.6314 54.3696 39.6314C55.7786 39.6455 57.1757 39.3669 58.4722 38.8134C59.7687 38.2599 60.9377 37.4433 61.9041 36.4152C62.0541 36.2931 62.1982 36.1723 62.3392 36.0544C63.2606 35.284 64.0274 34.6437 65.3209 34.6437C65.8236 34.622 66.3263 34.704 66.7975 34.8848C67.2672 35.0654 67.6964 35.3411 68.0565 35.6945C68.4167 36.0479 68.7003 36.4716 68.8908 36.9395C69.0799 37.4072 69.1729 37.9092 69.1609 38.4141C69.0889 39.3761 68.6838 40.2824 68.016 40.9772C66.3083 42.9015 64.203 44.4296 61.847 45.455C59.4896 46.4804 56.9371 46.9787 54.3696 46.9148C51.8816 46.9536 49.4131 46.4912 47.1067 45.5549C44.8018 44.6186 42.7084 43.2276 40.9497 41.4645C39.191 39.7014 37.8045 37.6021 36.8711 35.2915C35.9377 32.9808 35.4786 30.5058 35.5176 28.0134ZM20.2715 17.0618H4.4773C3.51257 17.0565 2.58895 16.6701 1.90678 15.9864C1.22476 15.3025 0.839257 14.3767 0.834005 13.4098C0.828603 12.9288 0.919239 12.4515 1.10051 12.006C1.28163 11.5605 1.5498 11.1558 1.88923 10.8156C2.22867 10.4754 2.63233 10.2066 3.0768 10.025C3.52128 9.8433 3.99741 9.75255 4.4773 9.7578H28.1338C28.6138 9.75255 29.0899 9.8433 29.5343 10.025C29.9787 10.2066 30.3825 10.4754 30.7218 10.8156C31.0613 11.1558 31.3294 11.5605 31.5105 12.006C31.6918 12.4515 31.7824 12.9288 31.777 13.4098C31.7403 14.3838 31.3315 15.3065 30.6354 15.987L11.4065 38.9935H28.1338C28.6138 38.9881 29.0899 39.0789 29.5343 39.2606C29.9787 39.4422 30.3825 39.711 30.7218 40.0512C31.0613 40.3914 31.3294 40.7961 31.5105 41.2416C31.6918 41.6871 31.7824 42.1644 31.777 42.6454C31.7719 43.6123 31.3863 44.5383 30.7043 45.222C30.0221 45.9057 29.0985 46.2923 28.1338 46.2974H3.64343C2.66834 46.2869 1.73722 45.8892 1.05415 45.1916C0.371227 44.4939 -0.00783049 43.5533 0.00012267 42.5757C0.0254827 41.61 0.407537 40.6881 1.0723 39.9885L20.2715 17.0618ZM84.2914 56.589V42.5847C87.5687 45.4634 91.7884 47.0386 96.1507 47.0115C106.442 47.0115 114.233 38.6541 114.233 28.0734C114.233 17.4929 106.442 9.13545 96.1507 9.13545C91.7749 9.09615 87.5417 10.7007 84.2914 13.6317V13.1355C84.1564 12.1892 83.6852 11.3232 82.9634 10.6966C82.2416 10.0702 81.3173 9.72525 80.3614 9.72525C79.4055 9.72525 78.4826 10.0702 77.7608 10.6966C77.0376 11.3232 76.5664 12.1892 76.4313 13.1355V56.589C76.5664 57.5355 77.0376 58.4025 77.7608 59.028C78.4826 59.655 79.4055 60 80.3614 60C81.3173 60 82.2416 59.655 82.9634 59.028C83.6852 58.4025 84.1564 57.5355 84.2914 56.589ZM95.2968 16.4208C101.44 16.4208 106.304 21.4233 106.304 28.0734C106.304 34.7237 101.44 39.7262 95.2968 39.7262C89.1549 39.7262 84.2914 34.7237 84.2914 28.0734V27.5673C84.5105 21.2149 89.1549 16.4208 95.2968 16.4208ZM149.612 17.5306C147.536 20.6373 146.428 24.2897 146.428 28.026C146.383 30.519 146.842 32.9955 147.776 35.3075C148.711 37.6196 150.1 39.7197 151.865 41.4828C153.628 43.2459 155.729 44.6358 158.043 45.5696C160.355 46.5032 162.833 46.9615 165.327 46.9173C169.065 46.9173 172.719 45.8094 175.826 43.7336C178.934 41.6577 181.356 38.7074 182.788 35.2554C184.218 31.8035 184.591 28.0052 183.862 24.3405C183.133 20.676 181.334 17.3099 178.689 14.6679C176.047 12.026 172.68 10.2267 169.014 9.4977C165.348 8.76885 161.548 9.14295 158.094 10.5727C154.641 12.0025 151.689 14.424 149.612 17.5306ZM165.327 16.4022C171.596 16.4022 176.311 21.6102 176.311 28.026C176.311 34.3727 171.607 39.65 165.327 39.65C159.047 39.65 154.342 34.442 154.342 28.026C154.342 21.6102 159.057 16.4022 165.327 16.4022Z" fill="url(#paint0_linear)"/>
<defs>
<linearGradient id="paint0_linear" x1="77.1906" y1="10.6611" x2="86.2397" y2="64.2267" gradientUnits="userSpaceOnUse">
<stop stop-color="#FF3269"/>
<stop offset="1" stop-color="#FF794D"/>
</linearGradient>
</defs>
</svg>
